<svg xmlns="http://www.w3.org/2000/svg" viewBox="0 0 512 512">
  <rect width="512" height="512" rx="128" fill="#1a1a1a" />
  <rect x="128" y="128" width="256" height="64" rx="16" fill="#c3d3d1" />
  <rect x="128" y="224" width="48" height="48" rx="8" fill="#e5e7eb" />
  <rect x="197" y="224" width="48" height="48" rx="8" fill="#e5e7eb" />
  <rect x="266" y="224" width="48" height="48" rx="8" fill="#e5e7eb" />
  <rect x="336" y="224" width="48" height="48" rx="8" fill="#e11d48" />
  <rect x="128" y="292" width="48" height="48" rx="8" fill="#e5e7eb" />
  <rect x="197" y="292" width="48" height="48" rx="8" fill="#e5e7eb" />
  <rect x="266" y="292" width="48" height="48" rx="8" fill="#e5e7eb" />
  <rect x="336" y="292" width="48" height="48" rx="8" fill="#3a3e44" />
  <rect x="128" y="360" width="48" height="48" rx="8" fill="#e5e7eb" />
  <rect x="197" y="360" width="48" height="48" rx="8" fill="#e5e7eb" />
  <rect x="266" y="360" width="48" height="48" rx="8" fill="#e5e7eb" />
  <rect x="336" y="360" width="48" height="48" rx="8" fill="#3a3e44" />
</svg>
